<svg width="353" height="354" viewBox="0 0 353 354" fill="none" xmlns="http://www.w3.org/2000/svg">
<path d="M342.009 146.5C333.551 101.255 304.497 61.0838 265.919 35.7949C208.927 -1.56755 135.59 0.522867 80.7478 39.6902C38.3913 69.935 11.2799 119.84 10.0603 172.702C9.20723 209.935 18.9008 243.786 39.141 274.256C41.4429 277.72 65.3543 304.358 69.0085 302C75.407 297.871 70.0085 282 70.0085 282C70.0085 282 40.9658 256.625 39.141 236.5C32.2236 159.452 126.513 114.622 170.009 67C171.4 65.4587 163.845 55.6079 163.509 52.5C162.489 43.139 167.461 38.4483 176.509 37.5C182.747 36.8576 188.793 38.8132 190.853 44.5746C193.462 51.8554 190.583 59.8194 185.185 65.4686C181.213 69.7099 260.225 134.861 268.848 142.6C293.18 164.463 315.273 191.985 317.572 226.003C318.485 239.538 312.76 249.405 306.009 260.5C304.998 262.162 303.017 264.252 302.009 266C298.568 271.743 293.393 274.125 288.009 278L286.509 280.5C284.803 281.74 286.008 286.386 286.009 288C286.009 291.664 285.487 295.394 286.588 298.889C287.028 300.287 287.486 301.652 287.492 302.869C287.488 303.375 288.067 303.683 288.472 303.389C333.569 270.677 351.635 198.098 342.009 146.5Z" fill="#EFD389"/>
<path d="M75.0085 283.455C75.0952 297.074 80.7154 306.91 91.4685 316.211C104.826 327.774 121.45 334.99 138.618 338.991C138.862 339.052 139.081 338.804 138.986 338.573C135.553 330.101 135.563 321.972 135.574 312.917L135.575 312.493C135.575 308.881 125.856 307.013 123.425 305.967C120.562 304.66 117.352 304.041 114.556 302.603C112.168 301.37 104.301 298.606 101.063 296.935C99.4279 295.392 78.4656 284.849 75.7233 283.07C75.4203 282.88 75.0113 283.101 75.0085 283.455Z" fill="#FAF2CD"/>
<path d="M218.503 104.148C204.737 94.0234 190.793 83.2294 178.917 71.3291C178.717 71.1274 178.359 71.1359 178.168 71.3469C146.354 106.298 105.51 132.904 73.3473 167.575C52.9711 189.536 32.938 221.595 49.5526 250.435C59.7913 268.208 80.9835 277.44 99.7165 285.958C104.892 288.311 110.502 289.917 115.474 292.628C115.8 292.807 116.145 292.431 115.956 292.146C106.095 278.171 103.275 259.457 107.101 243.147C112.843 218.514 128.962 196.775 146.485 177.923C169.615 153.033 196.304 131.11 218.667 105.625C219.057 105.18 218.988 104.503 218.503 104.148Z" fill="#FAF2CD"/>
<path d="M281.224 285.064L281.357 274.127C281.357 272.771 280.501 271.028 280.816 268.378C288.994 263.775 296.756 259.624 301.74 251.518C308.433 240.69 311.497 227.562 309.31 214.97C306.25 197.344 296.721 181.598 285.152 168.159C280.381 162.616 227.473 109.437 224.686 112.32C193.374 145.95 50.9254 257.609 144.265 301.301C146.68 302.45 144.514 317.799 144.765 320.643C145.411 327.9 147.716 334.459 151.681 340.321C153.56 343.097 161.347 342.935 164.128 342.935C177.33 342.935 190.852 344.169 203.823 341.383C220.828 337.774 238.26 333.685 253.639 325.217C260.263 321.568 266.772 315.686 273.165 307.571C275.845 304.161 278.13 298.792 280.021 291.467C280.441 289.837 281.21 286.645 281.224 285.064Z" fill="#D09D46"/>
<path d="M328.677 265.411C328.145 266.334 327.387 267.039 327.048 268.05C326.945 268.356 326.737 268.932 326.559 269.201L317.96 282.155C317.166 283.351 315.849 284.51 314.88 285.569C313.893 286.649 313.342 287.719 312.379 288.821C306.503 295.545 300.848 303.106 293.419 308.034L265.929 328.234L260.824 331.501C256.041 334.561 250.975 337.189 245.919 339.774C225.311 350.306 201.851 351.731 179.239 353.024L158.539 352.004C115.29 350.341 71.4043 324.318 43.7485 292.414C15.0419 259.308 0.461878 220.481 0.00854492 175.934C-0.487145 127.864 20.8224 78.4793 57.0085 46.5045C80.1169 26.134 107.653 10.588 137.949 4.07449C181.617 -5.29721 229.509 1.38872 267.649 25.2645C286.699 37.1745 303.249 51.7145 316.749 69.5745C339.974 100.278 353.355 138.933 352.939 177.574C352.624 208.567 344.537 237.846 328.677 265.411ZM288.789 298.794C333.9 266.715 349.219 195.625 339.589 145.024C331.129 100.654 304.819 61.1745 266.229 36.3745C209.219 -0.265514 135.859 1.78448 80.9986 40.1945C38.6285 69.8545 11.5085 118.794 10.2885 170.634C9.43521 207.148 19.1319 240.344 39.3786 270.224C41.6811 273.622 63.7173 303.54 67.3727 301.228C73.7732 297.179 71.6105 283.044 65.4886 278.584C49.8154 267.542 38.9839 252.8 37.1586 233.064C30.2389 157.506 125.84 113.396 169.349 66.6945C170.74 65.183 163.475 55.9823 163.139 52.9345C162.119 43.7545 167.429 36.6145 176.479 35.6845C182.719 35.0545 189.079 39.3345 191.139 44.9845C193.749 52.1245 190.869 59.9345 185.469 65.4745C181.496 69.6338 260.533 133.525 269.159 141.114C293.499 162.554 315.599 189.544 317.899 222.904C318.812 236.178 315.892 248.254 309.139 259.134C308.127 260.765 306.447 261.91 305.439 263.624C301.997 269.256 295.002 274.191 289.616 277.99C289.476 278.089 289.336 278.187 289.199 278.284C288.423 278.837 288.174 279.921 288.186 281.231C288.235 286.98 287.781 292.535 287.809 298.284C287.804 298.781 288.384 299.083 288.789 298.794ZM177.559 45.2845C175.698 45.2877 174.328 46.8634 173.796 48.5196C172.804 51.6076 175.035 57.5313 179.138 55.3437C182.855 53.3622 182.449 45.276 177.559 45.2845ZM97.8385 283.384C102.52 285.907 107.627 287.705 112.109 290.574C112.402 290.764 112.733 290.404 112.569 290.114C103.974 275.903 102.02 257.255 106.099 241.234C112.225 217.036 127.8 196.089 144.569 178.054C166.702 154.244 192.01 133.504 213.459 109.074C213.832 108.648 213.793 107.975 213.359 107.604C201.039 97.0645 188.579 85.8545 178.059 73.6245C177.881 73.4173 177.552 73.4125 177.369 73.6145C146.9 107.076 108.408 131.934 77.6286 165.104C58.1286 186.114 38.5985 217.144 52.8985 246.334C61.7108 264.324 80.8938 274.254 97.8385 283.384ZM278.709 285.544L278.839 274.834C278.841 264.064 292.82 262.441 298.819 252.695C305.379 242.091 308.382 229.235 306.239 216.904C303.239 199.644 293.899 184.224 282.559 171.064C277.882 165.636 226.021 113.561 223.289 116.384C192.596 149.316 52.966 258.659 144.459 301.444C146.826 302.57 144.949 308 144.949 320.384C145.582 327.491 147.842 333.914 151.729 339.654C153.57 342.373 161.202 342.214 163.929 342.214C176.869 342.214 190.124 343.423 202.839 340.694C219.507 337.161 236.595 333.156 251.669 324.864C258.162 321.291 264.542 315.531 270.809 307.584C273.435 304.244 275.675 298.988 277.529 291.814C277.941 290.218 278.694 287.092 278.709 285.544ZM101.019 297.464C99.5086 296.024 80.1509 286.185 77.6186 284.524C77.3388 284.347 76.9611 284.553 76.9585 284.884C77.0385 297.594 82.2286 306.774 92.1586 315.454C104.493 326.246 119.845 332.981 135.699 336.714C135.924 336.772 136.126 336.54 136.039 336.324C132.819 328.294 132.879 320.594 132.889 311.984C132.889 308.614 123.913 306.87 121.669 305.894C119.025 304.674 116.06 304.097 113.479 302.754C111.274 301.604 104.009 299.024 101.019 297.464Z" fill="#7A5A2A"/>
<path d="M328.677 265.411C328.145 266.334 327.387 267.039 327.048 268.05C326.945 268.356 326.737 268.932 326.559 269.201L317.96 282.155C317.166 283.351 315.849 284.51 314.88 285.569C313.893 286.649 313.342 287.719 312.379 288.821C306.503 295.545 300.848 303.106 293.419 308.034L265.929 328.234L260.824 331.501C256.041 334.561 250.975 337.189 245.919 339.774C225.311 350.306 201.851 351.731 179.239 353.024L158.539 352.004C115.29 350.341 71.4043 324.318 43.7485 292.414C15.0419 259.308 0.461878 220.481 0.00854492 175.934C-0.487145 127.864 20.8224 78.4793 57.0085 46.5045C80.1169 26.134 107.653 10.588 137.949 4.07449C181.617 -5.29721 229.509 1.38872 267.649 25.2645C286.699 37.1745 303.249 51.7145 316.749 69.5745C339.974 100.278 353.355 138.933 352.939 177.574C352.624 208.567 344.537 237.846 328.677 265.411ZM288.789 298.794C333.9 266.715 349.219 195.625 339.589 145.024C331.129 100.654 304.819 61.1745 266.229 36.3745C209.219 -0.265514 135.859 1.78448 80.9986 40.1945C38.6285 69.8545 11.5085 118.794 10.2885 170.634C9.43521 207.148 19.1319 240.344 39.3786 270.224C41.6811 273.622 63.7173 303.54 67.3727 301.228C73.7732 297.179 71.6105 283.044 65.4886 278.584C49.8154 267.542 38.9839 252.8 37.1586 233.064C30.2389 157.506 125.84 113.396 169.349 66.6945C170.74 65.183 163.475 55.9823 163.139 52.9345C162.119 43.7545 167.429 36.6145 176.479 35.6845C182.719 35.0545 189.079 39.3345 191.139 44.9845C193.749 52.1245 190.869 59.9345 185.469 65.4745C181.496 69.6338 260.533 133.525 269.159 141.114C293.499 162.554 315.599 189.544 317.899 222.904C318.812 236.178 315.892 248.254 309.139 259.134C308.127 260.765 306.447 261.91 305.439 263.624C301.997 269.256 295.002 274.191 289.616 277.99C289.476 278.089 289.336 278.187 289.199 278.284C288.423 278.837 288.174 279.921 288.186 281.231C288.235 286.98 287.781 292.535 287.809 298.284C287.804 298.781 288.384 299.083 288.789 298.794ZM177.559 45.2845C175.698 45.2877 174.328 46.8634 173.796 48.5196C172.804 51.6076 175.035 57.5313 179.138 55.3437C182.855 53.3622 182.449 45.276 177.559 45.2845ZM97.8385 283.384C102.52 285.907 107.627 287.705 112.109 290.574C112.402 290.764 112.733 290.404 112.569 290.114C103.974 275.903 102.02 257.255 106.099 241.234C112.225 217.036 127.8 196.089 144.569 178.054C166.702 154.244 192.01 133.504 213.459 109.074C213.832 108.648 213.793 107.975 213.359 107.604C201.039 97.0645 188.579 85.8545 178.059 73.6245C177.881 73.4173 177.552 73.4125 177.369 73.6145C146.9 107.076 108.408 131.934 77.6286 165.104C58.1286 186.114 38.5985 217.144 52.8985 246.334C61.7108 264.324 80.8938 274.254 97.8385 283.384ZM278.709 285.544L278.839 274.834C278.841 264.064 292.82 262.441 298.819 252.695C305.379 242.091 308.382 229.235 306.239 216.904C303.239 199.644 293.899 184.224 282.559 171.064C277.882 165.636 226.021 113.561 223.289 116.384C192.596 149.316 52.966 258.659 144.459 301.444C146.826 302.57 144.949 308 144.949 320.384C145.582 327.491 147.842 333.914 151.729 339.654C153.57 342.373 161.202 342.214 163.929 342.214C176.869 342.214 190.124 343.423 202.839 340.694C219.507 337.161 236.595 333.156 251.669 324.864C258.162 321.291 264.542 315.531 270.809 307.584C273.435 304.244 275.675 298.988 277.529 291.814C277.941 290.218 278.694 287.092 278.709 285.544ZM101.019 297.464C99.5086 296.024 80.1509 286.185 77.6186 284.524C77.3388 284.347 76.9611 284.553 76.9585 284.884C77.0385 297.594 82.2286 306.774 92.1586 315.454C104.493 326.246 119.845 332.981 135.699 336.714C135.924 336.772 136.126 336.54 136.039 336.324C132.819 328.294 132.879 320.594 132.889 311.984C132.889 308.614 123.913 306.87 121.669 305.894C119.025 304.674 116.06 304.097 113.479 302.754C111.274 301.604 104.009 299.024 101.019 297.464Z" fill="black" fill-opacity="0.2"/>
</svg>
